<mxfile host="app.diagrams.net" modified="2024-04-09T03:27:39.537Z" agent="Mozilla/5.0 (Windows NT 10.0; Win64; x64) AppleWebKit/537.36 (KHTML, like Gecko) Chrome/123.0.0.0 Safari/537.36" etag="js511JfdelbnscMj09V0" version="24.2.3" type="device">
  <diagram id="C5RBs43oDa-KdzZeNtuy" name="Page-1">
    <mxGraphModel dx="1050" dy="522" grid="1" gridSize="10" guides="1" tooltips="1" connect="1" arrows="1" fold="1" page="1" pageScale="1" pageWidth="1169" pageHeight="827" math="0" shadow="0">
      <root>
        <mxCell id="WIyWlLk6GJQsqaUBKTNV-0" />
        <mxCell id="WIyWlLk6GJQsqaUBKTNV-1" parent="WIyWlLk6GJQsqaUBKTNV-0" />
        <mxCell id="gBozAsolUpihr9TJqK_L-58" value="&lt;font style=&quot;font-size: 13px;&quot;&gt;&lt;b&gt;data_ingestion_dir&lt;/b&gt;&lt;/font&gt;" style="rounded=1;whiteSpace=wrap;html=1;strokeColor=none;" parent="WIyWlLk6GJQsqaUBKTNV-1" vertex="1">
          <mxGeometry x="176" y="230" width="120" height="30" as="geometry" />
        </mxCell>
        <mxCell id="gBozAsolUpihr9TJqK_L-98" value="" style="edgeStyle=orthogonalEdgeStyle;rounded=1;orthogonalLoop=1;jettySize=auto;html=1;flowAnimation=1;strokeColor=#FF0080;strokeWidth=2;" parent="WIyWlLk6GJQsqaUBKTNV-1" source="gBozAsolUpihr9TJqK_L-59" edge="1">
          <mxGeometry relative="1" as="geometry">
            <mxPoint x="407.56" y="365" as="targetPoint" />
            <Array as="points">
              <mxPoint x="408" y="340" />
              <mxPoint x="408" y="340" />
            </Array>
          </mxGeometry>
        </mxCell>
        <mxCell id="gBozAsolUpihr9TJqK_L-61" value="&lt;font style=&quot;font-size: 13px;&quot;&gt;&lt;b&gt;gcp_data_file_path&lt;/b&gt;&lt;/font&gt;" style="rounded=1;whiteSpace=wrap;html=1;strokeColor=none;" parent="WIyWlLk6GJQsqaUBKTNV-1" vertex="1">
          <mxGeometry x="177.56" y="273" width="120" height="30" as="geometry" />
        </mxCell>
        <mxCell id="gBozAsolUpihr9TJqK_L-62" value="&lt;span style=&quot;text-align: right;&quot;&gt;&lt;font style=&quot;font-size: 13px;&quot;&gt;&lt;b&gt;output_file_path&lt;/b&gt;&lt;/font&gt;&lt;/span&gt;" style="rounded=1;whiteSpace=wrap;html=1;strokeColor=none;" parent="WIyWlLk6GJQsqaUBKTNV-1" vertex="1">
          <mxGeometry x="183.56" y="312" width="120" height="30" as="geometry" />
        </mxCell>
        <mxCell id="gBozAsolUpihr9TJqK_L-63" value="&lt;font style=&quot;font-size: 13px;&quot;&gt;&lt;b&gt;csv_data_file_path&lt;/b&gt;&lt;/font&gt;" style="rounded=1;whiteSpace=wrap;html=1;strokeColor=none;" parent="WIyWlLk6GJQsqaUBKTNV-1" vertex="1">
          <mxGeometry x="187.56" y="349" width="120" height="30" as="geometry" />
        </mxCell>
        <mxCell id="gBozAsolUpihr9TJqK_L-67" value="" style="shape=stencil(lVnbUhsxDP2avGpsy5blZ9r+BzNAyZQCA/T299U29RLLuwd4SzY6a1s+ko6UA188314+Xh9SeH55evh2/et49XJ74E+HlI73t9dPxxf7dODPB764eXi6/vr08OP+6vT98XKxXD59f/i5vOH3CReJywJK4c/pQaAQ/j34cjK/O96fmWfK0Zu3ffNKJTvzWPfNY6DqX58ysGeq1dkL2H0UKmmwjxQE2CvV4uz/v2DT3pZ3503dX9v2iZI6+6bAPpPIYJ+Jwf7N/2F8f6EGris1qqN9JQb+50TMg32D7GGjjzj7huztvsb3G0PQAViJwwhIFBnw2fibPUBRAMS+gRWQ+5rbgImj0S4BkCgXEreChRFgRbafHaD1qN4GNEojwHiN4rIYjce4MeIl4NaSqY2BbExScOgyMZUtlMEZSiMdL87I2EAsSPSxaWyMgNxiweYAFSY7EQqjl7hRBl6S1r2+hjPD/FWj91IWGHDVyDzedFYKICPVTDpmvBJIEUAojxFnZFFwD1V7QK6A3Pm7CVALUbclIQXxoExpBAguC2obcAB7BTi0ik8CUnvl2ga0zpw1sUZIjRYnQIalpKVeCVaAkICYboXCeA/maEErCPEY0+boAgKoWXJ31UGgW2NYxceKqBQBmWwJx++mMEYNIMEDUDZuU4zakwISk73PpY3FD2gF2/G0Aipy5pMSPaCiLVV/1QZA6but1DnzUgYhZ4A8JqaGa9YCcCvYmshLMrm1wJAzQHNbsqKE6FopFw9gdA86sdUqCr7pMm3pDXrH6AEZ07uI91IEqW8JoAnQPhij0kvxbhpwN2fJEh/CdQFLTGE38Vh4lyco92kXI2cARQGhlEY3nflhj01Oxb26eg8Q1QNgiRAvLJviNDB1P7amoov4MGCSTFb4EroI9mlgKa0IYGXTrZAg+2wDdTzDUuZAkGr1PVatMFlq8bmvcm+L9vQJj4cWxYLGeg6nTwRKptr6+1ZA6rV4T5SlMahNLke0gvhOzgR5BOSray5dAbXruj3p6uhtOhGRr06SyZRoQR1B6/r/TOuiKmcizwn8RU2DM0iZBL4VLZA1THc6eltHgCYOS1fjBD6md9G+gbVJ0b7mNqB4L3HBAJ76JoZKtMydWeh03OtfXc9h3SXqX5cOeQygVKgggPieIzEpAmTfc6QES3tOEyDAdG+9pJsVxQr1ul2TjGyNpQftNoCpumlLxuOf2H9eAQwvbhkPuRUiCRp4yQQIcEt2TU47KBznpOjJWvvIaW8i6Nqs0uvL3sQxeXvUn5gDZdx/hjp6npjmvuD7BrIZlqpp3Jv7IGh7N36YnHunsmPu0ylMLMFX8jXmdsydnGco/0Mv8q/miAhhmlfBSjCJ5gTT+mQe4Vx42kzsZ3/fUQPUXJMjA8yd0zUFyMiJBKG3w++jGJbhb5rbh9e/Rm6Od3enf1bOf/d/pdij098w/Pkv);lineShape=1;strokeColor=#FF8000;rounded=1;" parent="WIyWlLk6GJQsqaUBKTNV-1" vertex="1">
          <mxGeometry x="300" y="245" width="72.56" height="30.95" as="geometry" />
        </mxCell>
        <mxCell id="gBozAsolUpihr9TJqK_L-71" value="" style="shape=stencil(lVjZUlsxDP2avGpky+szpf/BDKHJlBImpNvfV27Gl1jOPYG3i6ODJR2t3sjd2+7hdbvx/HY6Hr5vf+8fT7uNfNl4v3/ZbY/7k35t5H4jd0+H4/bb8fDz5fH89+tDk2xfPw6/2n/4c8Y5CrWBPP89HzAx/z/4ehZ/3r9ciEcqbhB3xHVdvFLOg3ggL+viTqiWQb6SQ/KFxKgTKIV1gPcU4gioVIG9zeDRAp8pZAAoVEaHSiKf1gHiqIbRR5ES8Knoz6OTot4AbAhMMqqUHEkBgEhZRkAgBjZEZ3lIkQICqMZ+BOhJXAcktSFMAMB0EktcUwkBEqVojXZIpUpiAEIMbsieonGrngDisjKdLYA9ABTKY2go08mtA4qjPLo1akqBG8qSwAtAekpdB2RyY2iEQh4kUGWKJh+4U3kdUMiNAJ+oAJUUYJhWQAbE1TrdUCgilSrF8QbxMJYUUAxA/QZCQwF1zOngqQLiGqBYHiooAk0lHpkO3W9rgDBGa6w9adcAbHLaY7cWGxpJsA2FWCwggIZSc1dgAXB39BrAjTxoaUMNpSZb7rV4JgwwodH6A7Ih9UBYYqliQO6xuQBCL8+rXhpv0D5dEXHZBp92UVRmlLhgAIkiaCgKMPmgN+Qb0TqGhnAvnmsAM8toIxbkVvVJsoUMpajjZfZaEAn7tdomFz0VnHLRhGu+VTbcNDsknHLZjAJCGVP9SYAjN8ZGYTj/aAsyRpcKh1xtcnnkoUqP+OsAbcujDRrxaJyZG/UF+R+cBd65/OC00bgEN8zzTKu3IOfaxBSs1QG4aZ7JtFYxCKZ56quR3I250hARqODJ1RcLQCnXim+0gAx40KQ3GaTBhKYNLSumLepI5BDA9SXpIiFQLOn0YgDKPdpRdAsy833EGaR7lsnRyP1kbZNjsylGOCbqqphNW7y1ipoioBMWWoKmTVebYkAW2EVaeUTDzERa4x1wwD3KFnnp09CKvNXHwfTnXrAuGmgB/uTu7UU+QP9Pva1t3qB9zvIRrvaTPs5BviZ7M+xrkzsDfAaY2PJwNZyCgWG/+eSjzU1x/Xh/H3raPz+fn5cuf7fvSXp0fouS+38=);lineShape=1;strokeColor=#3333FF;shadow=1;rounded=1;" parent="WIyWlLk6GJQsqaUBKTNV-1" vertex="1">
          <mxGeometry x="301.2" y="289" width="41.36" height="3.81" as="geometry" />
        </mxCell>
        <mxCell id="gBozAsolUpihr9TJqK_L-72" value="" style="shape=stencil(lVjZbhsxDPwavxK6j+c0/Y8AcRqjaRwk6fX3HdXQ2qR3J8ibvctZUdRwSGoXb94e7172u+De3l+P3/e/D/fvj7v4ZRfC4flx/3p4x69dvN3Fm4fj6/7b6/Hn8/3p/8vdsBy/fhx/jS/8OeG8eD9Awf09PehZfP//5OvJ/unwfGGfJERtjydu275KNt+PEv22vffiugYEyYEAsH7VAC+lEUCVZlxy0skKiFErCtC6pEIARULWAISBAKKXmDQgzzXXAVmy3nSL0ioBNClOA4JEskICMcymnUQS1pQsoCLQhBmpiddRqmk6uQrIQarmXnVSIgEUaU0BSp1OrgKKE6fPoaR5lOuAYMNavHQGSJL0weVO2VqKJL0CdtXZHppknUA5zgxZz1Bnw5pAbxLWiu/pBEpZKtGMurxeADhKsgcwp2uXYpdGwjq4qbkUi9REAMHqUoxSCflammSegNClEyFDyjvtEmSBZVxrUjU1Apwke4BsNR0l3yQRIYOSxqABWRzZNLS66D1AnllYO9iqMw5LEir15ZSWBSQSrvZqRQYKQA4B9qUZe8/8bxLs92mAmj0CN3Nj3b5boUfyEV7D3uSmn8K/Zd8N6WjhGfY6M3HiLD5LGi6ZLIVkPuyz9j9TiYe90zlQqHYh/jkYe1YRwIeerD2Lf50172wfWYaVqQkX+yXqDntTxxOtmSO/jGxRIR32Ov7hI3+KzcfC89FpfxZN2rLPztgH5n+zfHBzwS17I1jId843b/WBSm6fcnOOD+Un8stUDQmsmXWL3pwPOLAD67N1PRMockH5nH2ZenxRMqhiJZsBvs+maqvGBE25oVlMU7xt+MNSddYLKw5ZAyIafgYo8/UCSLML22oOkpHRRnUO7Yc3HREKKyFG7XZoQb9NAVWSUerKey7MfZoZ2dHaXYM0fXBoNDOhBhpN25nCSUINtLLGJXTXiXXX2aYb+m02zRaUO13v0W9HBrgaT+FkZENLtcNj9VPT1gFQdE2+MRaxSa3PAXwBtDn3rAOyTaCPZsFgNw3CdzZtXskqUqoR3Ua37q8mZpaimJhNlNANe+ISNMJ0LuiGWWsHFTKltnMu+at5FuLp2EVEssW2F3pwaL6TzofR35KwgnvmLoUPCMlWz3N9XHfo6nKn01PzVvUu6t0qwNkBfjSgZAFnx/FRsMmG3eT9hT2b952tJAhopf6YGXAMGETxrqr/OGCSmbCP1p5RDv4b+zIb9K34OGvPirmz7X7PtB93dqiGPWtHPntb+bE9fpyvRh8OT0+nm9XL9/YqFY9O17Dx9h8=);lineShape=1;strokeColor=#FF0000;rounded=1;" parent="WIyWlLk6GJQsqaUBKTNV-1" vertex="1">
          <mxGeometry x="297.33633653531166" y="303.0833340307553" width="47.7117732545164" height="25.73821040318296" as="geometry" />
        </mxCell>
        <mxCell id="gBozAsolUpihr9TJqK_L-73" value="" style="shape=stencil(rVnbThtBDP2avFpzvzxT+h9IhBKVEgT09vc902iW2Ls5UaW+hcWeHd+Oj727ePP2ePey3wX39v56/Lr/ebh/f9zFT7sQDs+P+9fDO37t4u0u3jwcX/dfXo/fn+9Pf7/cDcnx69vxxzjh10nPSUtDKbjfpwe9SvF/n3w+yT8dns/ko9So5Yt0Il8kJivv0mX5LtFp+Sw+XJb3XmrWCkl8JApx2rcoRPHEAp8lda0QxBWiUCUWreDFsTd0SdqG1qWTN4SV0a1JbUQhSjcKVTJxa8hSdBxankdsK1SpRiFJYG/o0nQmtSCR2BDDyktOEol0zBJ14GqbR2wrNAn6DbVIqpcVkrNurUkaMTpFiUErLE+2FbLNpeqldaJQZ24uCk6yIwpNmg5cWZ5sKmQ3w7QoFK6AwOmKK0kyCVzOs4IXBU/dmhE4bTSeVBJpnFe1DXgn81IBCOjAwSrHFJpkfSU4mgEr4pr1GxB7VkBItaDdmgKFViSzwfrYJZBcqgDjqhWKZFKizUvRFRcBPMRLbfn3ooCGRJBvoJA2GsBTSKSBc0UbHdK0alsBYKxTA2jLIg1w9/oNaACF2ID2kTVqeFyJ1AM6mtNxQNdjLQs90+lcaly+iNc3yvxCzXZpjjGQNy3UTaS9JG9YhhNH8q53a6/jIUNieytPSg3yuRl5z+7fLaa6CeOX5Hsy8oVUsneLfR8KrDv3hU8sGTQR86IB0chnfn6x8pUU2QiAvQ9jkSPA1cqz+zeL757iEOTz6v6MpbZZH2f+YfdvFqs9xXbIe1swV+5vGiAKkiD7KEhbMIyGQL7YBGUkG/J9VZA8vmFVkLyAV4DiufwKUAIHlL4COJYPkLf3aVfkbX76K/Vo5dP/lEfH0vWFKY3lT7Fkpc0DLjWkZOrdzxtuK4AYmIJHT2MZF+yNfOMmOwtx8BGlHt1ibuAEDdTDJPXwEmND2TKJyGERE1PTfRszj2Pkxtm6iZVy91rthIOZh3H3ikhrL2HmCYz3Bjs4pkLHurKq5YRsJ0ZjPDF8K0fajkuw6JX5kiOvOGMBHpH0xnkGf0uclGpbIU4Tz4YuRlmyt4ErjbZ8jHV+NTjS4Rfn6TgglIEpFIlmWo6TNmwrrCYcZBdrIwkVbBQKBYExABkbGmWaGIBMeqOkPEH6uFo3oWg98RJK3utcaon2hgBcMnuRQpshJiarUPn2KFvkAxYyfhpQ0zq9gbZ0oeXsqgZ4HogNAHeTS2OLR2zwCJxZRHK3Yiaza7/MF4vB1vQYqxipsiWNLsxeUCyHHyyRWJDsNgusgK5S7V6n8y2kn6ctHddx1uZstxovIKXg7A5y0BpyIWfXFYP20fsYkt0XHL8g71bnMwKwGtIGLSZlsyXPdhvOrvrGWEL9Y+1tFCjW/qyUtC0zx5l8pf75t28P1+Xx4+NDx8Ph6en0neT8//bDCB6dPqrE2z8=);lineShape=1;strokeColor=#FF00FF;rounded=1;" parent="WIyWlLk6GJQsqaUBKTNV-1" vertex="1">
          <mxGeometry x="308.0488161417364" y="305.39692725855195" width="63.944537188715685" height="59.11922716216429" as="geometry" />
        </mxCell>
        <mxCell id="gBozAsolUpihr9TJqK_L-104" value="" style="edgeStyle=orthogonalEdgeStyle;rounded=1;orthogonalLoop=1;jettySize=auto;html=1;flowAnimation=1;strokeColor=#FF0080;strokeWidth=2;" parent="WIyWlLk6GJQsqaUBKTNV-1" edge="1">
          <mxGeometry relative="1" as="geometry">
            <mxPoint x="409.05999999999995" y="405" as="sourcePoint" />
            <mxPoint x="409.05999999999995" y="455" as="targetPoint" />
          </mxGeometry>
        </mxCell>
        <mxCell id="gBozAsolUpihr9TJqK_L-102" value="&lt;b&gt;initiate_data_ingestion&lt;/b&gt;" style="rounded=1;whiteSpace=wrap;html=1;fillColor=#6666FF;fontColor=#ffffff;strokeColor=#3700CC;flipH=1;container=1;" parent="WIyWlLk6GJQsqaUBKTNV-1" vertex="1">
          <mxGeometry x="347.56" y="369" width="132.44" height="31" as="geometry" />
        </mxCell>
        <mxCell id="gBozAsolUpihr9TJqK_L-106" value="" style="edgeStyle=orthogonalEdgeStyle;rounded=1;orthogonalLoop=1;jettySize=auto;html=1;flowAnimation=1;strokeColor=#FF0080;strokeWidth=2;" parent="WIyWlLk6GJQsqaUBKTNV-1" edge="1">
          <mxGeometry relative="1" as="geometry">
            <mxPoint x="408.05999999999995" y="485" as="sourcePoint" />
            <mxPoint x="408.05999999999995" y="535" as="targetPoint" />
          </mxGeometry>
        </mxCell>
        <mxCell id="gBozAsolUpihr9TJqK_L-103" value="&lt;b&gt;get_data_from_gcp&lt;/b&gt;" style="whiteSpace=wrap;html=1;fillColor=#6666FF;strokeColor=#3700CC;fontColor=#ffffff;rounded=1;" parent="WIyWlLk6GJQsqaUBKTNV-1" vertex="1">
          <mxGeometry x="350.06" y="455" width="119.94" height="30" as="geometry" />
        </mxCell>
        <mxCell id="gBozAsolUpihr9TJqK_L-115" value="" style="edgeStyle=orthogonalEdgeStyle;rounded=1;orthogonalLoop=1;jettySize=auto;html=1;flowAnimation=1;strokeColor=#FF0080;strokeWidth=2;" parent="WIyWlLk6GJQsqaUBKTNV-1" source="gBozAsolUpihr9TJqK_L-105" target="gBozAsolUpihr9TJqK_L-114" edge="1">
          <mxGeometry relative="1" as="geometry">
            <Array as="points">
              <mxPoint x="410" y="640" />
              <mxPoint x="410" y="640" />
            </Array>
          </mxGeometry>
        </mxCell>
        <mxCell id="gBozAsolUpihr9TJqK_L-105" value="&lt;b&gt;unzip_data&lt;/b&gt;" style="whiteSpace=wrap;html=1;fillColor=#6666FF;strokeColor=#3700CC;fontColor=#ffffff;rounded=1;" parent="WIyWlLk6GJQsqaUBKTNV-1" vertex="1">
          <mxGeometry x="350.06" y="535" width="120" height="35" as="geometry" />
        </mxCell>
        <mxCell id="gBozAsolUpihr9TJqK_L-107" value="" style="shape=image;verticalLabelPosition=bottom;labelBackgroundColor=default;verticalAlign=top;aspect=fixed;imageAspect=0;image=data:image/png,iVBORw0KGgoAAAANSUhEUgAABLAAAASwCAMAAADc/0P9AAACH1BMVEVHcExDg+9Hjv5Eg/JVs/9Cg/BEhfVKhu88h/9Klf9EhfREhvZCgu9Dgu5EhfVEhvVEhfZEg/BEhfVDh/xEhPFEhPREhvdDhvpEhfVEhfhEhfVEhfVEhvZDhvlEhfNFhO9DhvhEhfVEhfVDguxDh/xEhfdEhfVFhO5DhvlEhfVEhvdFhPBFhO1DhvpBetxAet1EhvhDhvlDhvpDhvtFhPFEhvhFhO9FhfFFhO9Be91EhvdFhPBCet1Dh/pEhfZBe91FhPFBet1Dh/tDfeFAe91Be91AetxFhPBEhfNAe91Dh/xFhPBBet1EhvlAfN4/e9xAet1Aet1Aet1FhO5Dh/1EgelDh/tDh/3///9EhvdEhvhEhvlEhfREhfVDh/xEhvZFhfNDh/tAe99Ae95DhvpFhfJGg+tAe91Ae+BFhO5Gg+xFhO9FhPBAfOJGhO1Dh/1EhfZEhvo/fONGg+pFhPFBettBe9xAfOFBetpFhfFFhO1Ae9xAfOBDhvs/fORGhOxBetlBe9vM3PfN3v1/qOyAqOyRs+9Egu5EguxFgelDg/JAfeZBfOJDgetBfOFEg+/T4v1BfeRBfeNBfOBEg/BCe91Ce9xBfN5BfN/U4/3V4/yDrvj8/f/o8PxunOqqxfS0zPX3+v6+0/dhk+hVi+ZFgOPa5vt4pO5Qh+bh6vvx9v1Kg+Sgv/LG2PiJru7R4PiZu/VqnvZZkvWAqOuCqvF5X7iaAAAAWHRSTlMAKAYMAQlTEREDMjsUG3JMQy1a7h8jF+Dug6Fs3uh+58RmYTf0ivTwvNd41Pet8fink5vOmvjDkd7oy7hNtPzU+qvVQLyA37H8nfnLkP1nWcj8c6n+h/372kEK9AAAMoJJREFUeNrs3d1KW9sagOGhRmti61+qwVqLthFECKhhnRQ88TDQs2APNkyYMM+DF5B732XtsnZXW238zfh5HsgtTDLH/Mb3BgAAAAAAAAAAAAAAAAAAAAAAAAAAAAAAAAAAAAAAAAAAAAAAAAAAAAAAAAAAAAAAAAAAAAAAAAAAAAAAAAAAAAAAAAAAAAAAAAAAAKBEr1YpxqsAqdntbBztXVx+7vW63fGEooy73V7v8+XF3tFGZzdAzFbXjs5PDiYUbTyefNcdnp1u7ASITnttfeBRxU/G334Hg/VP7QCxaG/unfQncKv+yd6mhxYRWN648M+KGXQHHx3KM1e7+yejCcxodLLvJJ45aW8Ovk7gXr6erCwGeGlbx94EeZDuRSfAC2pvDyfwYJ+3HcHzUpbWexN4lN6pE3hewu5edwKP1j9/E+B57Z77LMgTGZ2/DvB8lk79u+IJ9Y+XAjyPxSMfBnli3VNTDjyLFUftPIPeRoCn9mYwgWdx+TbAU2qvu93Ms+mfGsviCXXMifKshmsBnsbiscWhPLOvew7feRIL/l7xAoZ2k/IEPjq94kWM1gM8zquzCbyI8WSwGuAROmaveEE9i2d4hG2vg7yo/kqAh2md+jrICxsftwI8wJLZdubg0n1oHmDnagJzcOWmDve25bidOektBLiXTreC+Zgc+FjIvWx6XjFH/c0AM9voVzBHI+MNzGxlVMEtPLGIy6bnFXM3soiUmax5HyQCfSuy8H2QZHR9K+SPFg4qiELXPBZ/8Nbzimj0tKG50/KwglhMhssBbtU6qyAiA7sbuN1eBVE5DXCLlesKonJtgJRbdAxgEZtxfyvAbyxdVRCdnoV+/M67CiJ0EeAXKxVEaTvAT966kUOkunYm85PWYQWROmwHMIFFGsYfAvxgywosIjZyDZoftE4qiNihKzr831EFUfsY4LvXvhASue5ugP+xo4HoGR/lu81xBZEbSxXyt7Y7hCTgyjAW37T2K0jAfoCw6sSdJHRfBzivIAnngeJtfa0gCV/t8sOMO8k4CRTOFiwSshEo2uL7ClIx7i0GSnZaQUJUv4q2a6SBlIz74vUl050gMa4UFqwjnEpirj8FCmWPO+mxyq9Y2xUkR/SrUMu9CpKjBF0ooRyStBco0Nt+BQnq66qWaFBBiiZngeKs2YtMqtYChWkNK0jTZGi0oTRKhCTsKFCUpYMKUjU5eBUoyXEFCTsOFGRnVEHCRguBclxWkLTLQDE2K0jb2LbkYkg9k74r25JLsV5B6iZC0IWQeiYHQtCFuKggA0LQRdga1ZCBayHoEpzUkAUh6AKs1JCJlUDmFns15OG6txzI24casiEEnbndbg3ZEILO3LsaMvIukLHOdQ0ZEYLOWeuwhqwIQWfsYw15EYLO17KRBrJzIASdq70asiMEnamdfg3ZEYLO1KCG/FRC0FnarCFLm4HstIc1ZGnYDuRmv4ZMCUFnZ/WghjxVB6uBvJzXkC0h6Mws2ItMxoSgM3NZQ8aEoLOyUUPWhKAzsnhVQ9aEoDOyXkPm1gOZsBeZ/HV3A3m4qCF31xeBLNiLTAmuO4Ec2ItMEYSgs7BdQxGEoDNgLzKlEILOgNQzxfgQSNwbe5Ephm3JyTuroRhC0IlbM9JAQa7XAglrfa6hIEMh6JRJPVOYj4FkLdmLTGGEoBN2XENZKiHoZEk9U57RTiBNUs8UaBBIktQzRRKCTpLUM2W6EoJOkdQzhdoPJGfVXmQK1X0dSI3UM8U6DyRG6plyjbYCaZF6pmC2JSdmpYaCCUEnReqZsvWEoFNyOoWiCUEnZLc7haL1haDTcTGFwglBJ6NzPYXCCUEn43AKpasObUtOw/YUmG4HErDcmwJTIegk7DXAN0LQCXjTb4Cmmf4lBB2/swb421kgcmsN8J0QdORanxvgOyHoyB01wD+EoKO2dNAA/xCCjtpxA/zgOBCtnb8a4AdC0BG7bIB/EYKO1mYD/MS25Ei1hw3wEyHoSK03wC+EoKO02m2AXwhBR+m8AX5DCDpCW18a4De+CEHH56QBfksIOjorDWC0IQ2L7xvgFu+FoONy2gC3Og1EZNdIA9yh/yYQj3cNcAch6Ih0jDTAnb58CkSiddgAd5kKQUdjuwH+QAg6Esu9Brhb3bMteWZSzzBve4EIvJV6hhkIQUdh0AB/IgQ9O6lnmDch6JlIPUMkhrYlz0DqGeJwFLib1DNE4+BVYI5aUs8wKyHoP5N6hniMFgJ3kHqGmFwG7iT1DLGwLXme2lcNcC9XtiXPy/oNcE/rgblY7d4A9/MfIeg5ubgB7k0Iei62vtwA9yYEPRcnN8ADCEHPwcoN8F/27m23iuuO4/jCJzAOxjj4fBCYYhkkS4DjIlHBBTe98m3lmZE1fYS9H6D7ppIv2pv2sk2rpI3UqFFSJX3CSuSgQI3xYdZ4rZnP5yF+2qO99P9eyFSgZWPrQ+BC1icD7docAhfzOyHoli160gAXJgTdstUhcGGrgRbNDIFLEIJu0cSLIXBxv3khBN2erSFwKULQrRnfGAKXsiEE3ZaVIXBJQtAtWdgfApckBN2S3SFwabuBFswNgQbMBaKb3quABghBt2CtAhohBB3djY0KaMTGjUBcTyugGUMh6Miu7VdAQ/aFoON6WQGNEYKO6nYFNEgIOqKx1xXQnIN1Ieh4ZiugUULQEe8iV0CjPl4MxPGsAhomBB3JzYMKaNbw4GYghp0KaNw915JjmK+ACISgI5hcqoAIloSgm7dZATEMhaAbd+sXFRCFa8mNe1IBkQhBN2ymAqKZCTSaeq6AaISgG7VVARFtBRoz7i4yRCUE3aCHFRCVEHRjFtxFhriG+wuBZuxWQGRC0A2Zq4DohKClniEbr4WgpZ4hG2sBqWfIxPJHAalnyIRryVLPkI2DOwGpZ8jETuBSpiqgHULQUs+QEyHoS3lcAW0RgpZ6howMhaClniEfzwJSz5AJIeiLmrhXAW0SgpZ6hqzMB6SeIRNLriVfxEoFtG+4GZB6hkwIQUs9Qz6eBKSeIRdC0FLPkI09TxvO534FXA0haKlnyMnG9YDUM2TiYUDqGTKxfy3gLjJkQgha6hmyMRSCPqNpd5Hhyr12LflsZivgaglBSz1DTj4WgpZ6hmwIQZ/BHXeR4eoJQZ/NTgkkQQj6g6ZKIBFTgVONrZdAIoSgP+BxCSTjceAUi9slkIxtIejTrJZAQoSgT009l0BCDh4E3pt6LoGkCEG/13wJJEYI+r2p5xJIjBD0e6yUQHJWAie4u18CyRGCPtFuCSRICPoEMyWQJNeST0g9l0CS9qYDb7tfAom6H3gn9VwCiRKCfsfzEkiWEPRbFjxpgIQJQb/lZQkk7GXgJ3MlkLTbgZ9SzyWQtEeuJf9otgQSNxt448ZyCSRuWQj6jYmnJZA6Iejv3XlVAskTgpZ6hnwIQUs9Qz6EoMOk1DNkYn0y9N1mCWSi9yHoW1LPkItq+1botyclkI3V0GsPSiAjvQ5Bu4sMeel1CHqrBHJS9TgEPS71DJnpcQha6hmy09sQtLvIkJ/9hdBPUs+Qn2I39JK7yJClXoagp/dKIEOv+xiCXiuBLPUwBH1D6hkytXwj9I27yJCt56FnrnnSANl61bdryVLPkLGeXUu+XQIZ61UIekzqGbK23qcQtNQzZK5HIejFj0sga9uLoS+elUDeDp6Fnrh5UAKZO7gZ+uFeCWSvJ9eS50ugA3oRgp50Fxk6YakPIWipZ+iIzdB5t7YLoAvK7buh654UQEd0PgQ9UwCdMRM6beJFAXTGi24/bdgqgA7ZCh02vlEAHbLR5RD0wwLolA6HoBf2C6BTOhyC3i2AjulsCHquADqnoyHo6b0C6JxH3QxBrxVAB62FDrq+XAAdtPxR6J6nBdBJHQxB3/GkATqqgyHolwXQUZ0LQU8VQGd1LAQ99qgAOqtjIejHBdBhnQpBL3rSAJ3WqRD0swLotA6FoG/WBdBp9YPQERP3CqDjOhOCni+AzpsPnTC5VACdt9SNa8krBdADnQhBSz1DP+x3IQQt9Qw98SRkT+oZeiP7ELTUM/THXu5PG+4XQG9kHoKWeoY+2bgecib1DL3yMGRM6hn6Zf9ayJe7yNAzGYegpZ6hd7INQU+7iwy98yjXa8mzBdA7mYagpZ6hh8pMQ9BSz9BLT0OG7rwqgB7KMgS9UwC9lGEIWuoZemsqZGZsvQB6an0y5EXqGXrsccjKorvI0GOZhaBXC6DHsgpBSz1Dv+UUgpZ6hr7LKAQt9Qy9l00IWuoZyCYELfUMFCshC3c9aQDqTELQuwVAHiFoqWegKPK4liz1DHxvbzqk7n4N8Mb9kLjxjRrgjeRD0M9rgB8kHoJe2K8BfpB4CPplDfCjo5chYbdrgJ+5HZI19qgG+JmEQ9CzNcBbZkOiPlquAd6SbAj6kxrgHWmGoCfuvKoB3pFoCHqnBvg/OyFBUzXACaZCcibXa4ATJBiC3qwBTvQ4JObWdg1wou1bIS2rNcB7rIakPKgB3msmJGTiRQ3wXi8mQjq2aoBTzIdkjC/VAKfYGA+pWKkBTrUSzspdZOCK7S+ENOzWAB+wG5IwVwN80FxIwPReDfBBj1IIQa/VAHmEoK+7iwzkci1Z6hk4o+fhil3zpAHI5Vqy1DNwVkc74YOknoGz6nIIWuoZOI/1sXAqqWfg7Docgl70pAE4l+3FcFWeDQDO5ZNwRW6+GgCcy6ub4WrcGwCc072JcBXmBwDnNhWuwOT6AODcliZD+zYHxFB/9/Xn3/yeK/fN59/+d0AUm6F1t7YHNK/+9qtDkvHXLwdEsH03tO3JgOZ99/dDkvLNbwc0rlwNLZsZ0LxP/3FIYv7tuzCGmdCqiRcDGvedvUrQv/zGiqDlEPTWgMbVvgeT9NkfBjRuK7RofGNA06qvD0nR376wWM1rNQT9cEDjav8PJurzP1qs5j0MrVnYH9C4Tw9J01d/tljNazEE/esBzfvskER9MbJYzdsNLZkb0Lzqn4ck6suRxYpgLrRiem9ABH86JFH/GVmsCFoKQa8NiOEvhyTqeGSxYlgLLbi+PKBxBitlxyOLFUMrIeinA5pnsFJ2PLJYUTwN0d1xFzkGg5Wy45HFiqKFEPSvjojDYCXrePTTYh3RpJ0Q2dQRMRislB2PLFYkt2Onno+IwWCl7HhksSKJHIJ+fEQUBitlxyOLFctsiGhx+4goDFbKjkcWK5aoIejVI+IwWCk7HlmsaJ7FTD0fEYfBStnxyGJF8+pBiGTil0dEYrBSdjyyWPFEC0HPHxGLwUrZ8chiRTQfK/V8RCwGK2XHI4sV0fp4iGHliGgMVsqORxYrojgh6LueNBisnjoeWayYooSgnxwRj8G6nP+xdy+9UV1bAscXfiHjYAMC2tiAgchOjHUlIlmAQLdlqQdYYpjJGVQpZ1ItWopbV0eWSiVZNSCkIt2b0NdJDyK6XH6/jSHp/oCdEJIYsKvqvPZeu/b/9wE8/Gud7V17fai++3JtZWXt6VI9i2BRrFzdkcwNFJEjgpWpF68bi9W3NhsHu6mDRbHyNZD9qucickSwsrO6vF49YnFxsdpYq6cLFsXKVfaLoG8WQbBcUF/eqX4o2lhLFSyKlbNbWa96LiJPBCsjW+vV40XbSymCRbFydu20ZGm8iFwRrGwsb1ZPEu28TB4sipW38WxXPReRK4KViVq1mcXlxH+WYuVt9pRk569F5ItgZaB+WG3hIGmwKFbuHklmzhWRM4KV33yVfsaqVSlW/oYkI/1TReSMYKW3Um1t8VWyYFGs/E12STYGi8gbwUpta7Paho29RMGiWAaMZrXquYi8Eay06o1qWw4TBYtiGZDRIujpInJHsAx8EL6x+CJJsCiWCZ9JBs7zLrIBBCul+ka1TY0kwaJYJmSyCPrTIvJHsEwMWG98/yJBsCiWEZ+y6tkdBCuNRrVthwmCRbHM6JOUungX2QiClc7uYrVd/9hfjR8simXG1V5WPbuCYKWwXI3hafxgUSxDbrPq2RUEK4Xtavui1/GDRbEMmTjLqmdHEKwUdqoxNOIHi2KZMsKqZ0cQrOT2qnFsxA8WxTLmY0ms50YRZhCsVLaqcSzWYweLYhlzo4dVz04gWMk9rcayFztYFMucC6x6dgLBSu5lNZal2MGiWOb8Szernl1AsDoiWBQrtSusenYBwUruVd6fhBTLlOSLoP9ShEn/DJDUbjWOzfiH7hTLoC/uJFv1XCjCFCasVOqL1RjWg9jBolhGneNdZP2YsFJYr8bwdfxgUSyjHvSz6lk9JqwYUiVlJf5fp1hm3ZSYTrPq2SgmLIP/JtyNHyyKZVCSRdD3ijCJCSud1f04R1jxg0WxDBuXWE7NFmESE1ZKh9W2LScIFsUyKf4i6IdFGMWEZewFv/29BMGiWKb9VWIYKsIsJqy0nlXbdJDkSJ9imVYYkrZ1TRZhFhNWWrub1bbs7CUJFsUybrKLVc+qMWGlc1Bty1qQJFgUy7xBadNHrHo2jgnL0Ornr4NEwaJY5k1cZtWzZkxYKS3tVFtaX00WLIplwTTvImtGsNLa2q+2sLEUJAsWxbLgX89IO+4WYRzBysKr/Ra92g0SBoti2XCjh1XPehGs9LY2qk2sLwVJg0WxrOjjXWS9CFYG9rarJzpcDRIHi2LZ8Lc2FkFfL+IDBMsZ9ZWd6rE2XqZ5C4Ji2XFdWjg7UYAdBCsT9b3X+9EHdpZXg+RqUUr/+HsBSbR8LXmkABsIVob2ltejo75vrKwGadQiimXJiDQ1UIAVBCtbSyuHjZ3NKNrfaNTW9oKUahHFsmVAmrlRgBUEKw/1IBu1iGLZckOa6CvADoKlWS2iWNYMyYn6Jwuwg2BpVosoljWT/XKSWwVYQrA0q0UUy55bJ98ZLcASgqVZLaJY9lztkuMNFmALwdKsFlEsiwblWN3DBdhCsDSrRRTLomvdDFjaECzNahHFsmlUjtHPCZZFBEuzWkSxbLraLx+6UIA9BEuzWkSxrOqTDz0uwB6CpVktolhWPeBXhMoQLM1qEcWya0De96gAiwiWZrWIYtn1F3nP2dkCLCJYmtUiimXX7GV51+0CbCJYmtUiimXZoLyLnz3bRbA0q0UUy7JJjtxVIVia1SKKZdsZOWq6ANu+CqDUYUSxbPtMjujlZ4T2rQRQqhFRLNuGu7jlrsoXrwMotRFRLOv65E93CrDu5wA6vYgiimXdiPyhny9CDV4ESMDNM3eKFddwv/zuXAEK/BRAo6XNiGIpMCC/u1eAfeEXawH0qW9HEcVSYJxbo8pU+ChU6HUUUSwNJuWtUwWo8MXO0wDKHEQRxdLhEm8jK/O3fz9YDaDIbiOKKJYSo/KbvxSgxXc7B7sBdKg/Pfw+iiiWFnfkN2MFqPFdFO00tp/Buu31/egXFEuNMXnjUgGKfBfBOxSrLRdZUK8NxfITxWrHBV5qUIdi+YliteEzbmHpQ7H8RLFaeyC/6A4L0IRi+YlitTTbKyJnCtCFYvmJYrV0nrewlKJYHqJYrVwQkSsFaEOx/ESxWrjOBlW1KJaHKFZTxTv8k1AviuUhitXUpEgXK5+1olgeoljNzHbxtoxiFMtDFKuZS6xQ1YxieYhiNTHArQbVKJaHKNbJ+ni9TzeK5SGKdaJRGS9AM4rlIYp1kisyUoBqFMtDFOt44Yh8WoBuFMtDFOt4D+VBAcpRLA9RrOMUH3PR3QEUy0MU6zgP5GoB6lEsD1GsY0yyMscJFMtDFOtDV2W4AAdQLA9RrPeF12SiABdQLA9RrPcNy2wIJ3w3B+8s/neIo2YIljMoloco1rtmZCKEIyiWhyjWO4ZlOIQrKJaHKNZR12QshDMoloco1hH35X4Id1AsD1GsP03KVAiHUCwPUaw/PJDHIVxCsTxEsX73WB6GcArF8hDFeuuhjIRwC8XyEMX6zbSMh3AMxfIQxXrjigyGcA3F8hDF+tWo9IVwDsXyEMX6RZ8MhHAPxfIQxQrDAbkUwkEUy0MUK7wkXTzX4CSK5SHvizXTJTIZwkUUy0OeF6swJSKPQjiJYnnI82LdEZErIdxEsTzkd7Gui8iFEI6iWB7yulh9InImhKsolod8LtZ5Eenl34Tuolge8rdYs10iwotYLqNYHvK2WA/kV9Mh3EWxPORrse6JcOruOorlIU+L1Se/uhjCZRTLQ34W66L8isU5yvz80//E8n9fI3vPnq3vz+nlY7Guym/uhFDj5+WlADrUX9U257TysFh35I2e0RBaLK8G0KO+tD2nlX/FGpU3eGFGjZ+/CqDM8rdzSnlXrEvyBg82qPEigDL14GBOK8+KNSVvsYhCiZcBFOKrUIcr8lYPzyRr8MV2AI2WOHlXYUB+1z8cwr6tACrV5tTyqFjX+uV3bFNV4O8/BdBpa04vb4pVGpE/sOtLg9cBlNqY08ubYg3Jn3r5JrSusBZAqcacYn4UqzTcJb/hxQYluIOl1uGcZn4U654c9XEIq7iEpZniU3dvinVG3uDuqA4ESzPlwfKhWFPyrtshbCJYmmkPlgfFGpR3neVld6sIlmbqg9XxxZq9LEexT9U2gqWZ/mB1erHuyPv4eY5VBEszB4LV4cX6WD5wI4Q9BEszF4LV0cW6K29x210JgqWZE8Hq5GINyYf6udlgEcHSzI1gdW6xJnvkGLyUbBHB0syRYHVssW7Kcbr5QaE9BEszV4LVmcWqXOuVYw2GOB7B8pszwerMYo3K8bquhrCEYGnmTrA6sVhXu+QEt0JYQrA0cyhYHVisC3KS/qkQdhAszVwKVscVa6pHTjQUwg6CpZlTweq0Yg3JH7jurgbBykO97mOwOqpYhbvyHh7y04BgZWt35bCxszk3t7nRqK3teRasjirWx9LUSAmWEKys7C2vl4963lhZTRessmO+/69ShxiR5s5OlGABwcrMUm2z/KT8np2DVZ+C1THFmjgrLVwvwQKClZH68n75GAtPNtZ8ClanFOu2tNJ7vwTzCFY2lhrlJ+UTPNvzKFidUaz7vdJSXwnmEaxMvNopn+zJ+pJHweqIYvVJGx6WYBzBysLLzXIzT3a2PApWBxTrrrTj/EwJphGsDLzaLDf3486uR8Fyvliz56Ut0yWYRrDS290vt7Sx51GwXC/WtLTn9HAJhhGs1FbXyy09/3Hbp2C5Xazhj6RNgyUYRrBiSFWVFZ+C5XSxRqVd/VMlmEWw0trdLLdjYWfPp2C5W6zKZJe07VwJRxEs/bbLbXrtVbDcLdY5eYurDToRrDS2npfb8+PmnlfBcrVYjySOS1xtMItgpXRYbtuyX8Fys1gzpySW8RJMIljprO6X2/Vk3bNgOVmscYmne6wEgwhWOmvlGHY9C5aDxRo7LTHdLMEgghVDyqT8sOxbsJwrVnhL4up5XII5BCud9XIM/+tdsFwr1uN+iW2gBHMIVir15+UY1v0LllvFCgckgc9LMIZgpbJbjmOz7l+wnCrW55LERV5LNodgpfKqHMueh8FyqFgTFyWRKyWYQrBSeVmOZcnHYLlTrOuSTO/VEsz5ZwCCRbFKY92S0IUSDGHCSuUpn4SdU6wLklTP3RLMYMJKZascx3MfD91dKVZ4t0cSOzNbghFMWKmsluPY8PBagzPFmv1YmmIRtApMWOlsxLnp3vA3WOqLFU5LGpd5LdkMJqx0npVjOPA4WNqLNXxZUrldggkEK53lcgyvfA6W8mLdlnS6JkswgE/CdJael9u2U/c6WKqLdb9LmmIRtBJMWCk1yu1aqPn2HpZDxRqSY/FasjZMWMYexHq+5Xuw9BbrU0mt5xSvJRvAhJVSfb3cnh+2/VpC4VKxZs9LBu6VkDsmLFMj1vMtgqW1WPckAz0sgjaACcvUKVbNq0WqThVr+CPJxGgJeWPCSm1pv9yGjT2CpbVYo9IUi6AVIVhmPgo3twKCpbRYU13SFIugFSFYGThofYC1EhAsrcU6J5l5VEK+CJaJ3TnPlwOCpbVYj6QpFkGrQrAysdxqviJYWovVatUzi6BVIVjZWGly8r7zNCBYWotVGZemWAQdB8Fyxm6jfIJnewHBUlussdOSpZ5bJeSJYGWlvrJRPsb6yyAgWHqLdUuaYhG0MgQry2Stv3941VirBwRLcbEe90hTLIJWhmBlauugsVl+a397eSkIAoKluVgD0hSLoLUhWFmrLz1dW1lZe/omVgRLd7FGJHtnWQSdI4KlWWcHy36xJi5KDq6XkBuCpVmHB8t6sa5LUyyC1odgadbpwbJarNarnlkErQ/B0qzjg2W3WH2SExZB54Zgadb5wbJXrNarnlkErRPBUsuDYNkr1uwZyc10CfkgWJr5ECxrxZqWplgErRXBUsuLYFkq1vBlydFgCbkgWJr5ESw7xRqUplgErRbBUsuTYNko1v0uydVQBTkhWGrVFjzx7TcVw4YkZw8ryAHB0sybYBkv1kPJ26mZCrJHsDTzJ1iGizVzXnJ3r4LsESzNPAqW2WLdk/yd/qSCzBEszXwKlsliffKRGDBaQeYIlmZeBctgsW6KCf1TFeTgqwBKHS54xVSxpvrFiHMV5GAtgFLbC34xVKxzYsijCjIXLgdQan3BM0aK9UhMucTVhhxsB9Bp74cF3xgo1swlMWa8gqyVSnsBVFpZ8E/+xboi5nSPVZC51wE0qm8seCjvYo11i0G3KsjeUgCFlhe8lHOxbolJPY8ryNxPqwHUebW54Kdci/W4R4waqCBzpW2Kpc7WzoKv8izWgBg2UkHmSj/tBlBlzdf5Kt9ijYhpZycqyNqXlf+scZClyKvGgtdyKtaXExfFuOsV5OA/vm8crLx8CuvWlmte/nvQRLGui3m99yvIwTffLgCtuVus2bFesaCvgjQoFhyQR7H6xIq7FaRBseCA7It1t0esODMzjzx88+0TQItvv5nP1JdnxJLpeSRGseCIjIs1LbZc/mQeSVEsuCLTYn1yWawZnEdCFAvuyLJYg2JP1+Q8kqFYcEh2xbrfJRYNzSMRigWnZFasIbHq4TySoFhwS0bFeih2neJqQxIUC67JpFgzp8Sye/OIjWLBPVkUa1xsO83VhvgoFhyUuljh2Gmx7uY84qFYcFPqYt0U+/qn5hEPxYKbUhZrql8UODePWCgWXJWuWP8mKjyaRxwUC85KU6zPRYeLXG2Ig2LBYcmLNXNRlLgyj7ZRLDgtabG+vCJadI/No00UC45LWKyxblHjwjzaRLH+n7172akju+Iwvo0LENhcZZACEggjggIWTBAXEQmiTkARUWKCeIFGTnelSjUJ6ZaOWyKZkUE8afnyuN1g4+a46+xTdThVtdba3+8hvtHe6w/teivWtJMj2r5EMRQL6vVSrJPICTKaXqIIigUDeijWshNl7hJFUCxYULpYc64criVrR7FQiMRiJb8dc8KsXaIbigUzyhVrzUkzsHuJbigWzChTrN1BJ87QJbqgWDCkRLGGXC+4lqwdxUIhwoq17SSa4kuhH8WCLQWLdTjlesQQtHYUC4UIKtarHScT15J9KBbsKVKs1adOKIagPSgWDCpQrHknFdeSPSgWLOparPUBJxbXkjuiWLCpS7FeTTrBuJbcAcWCVf5iHTvJZnjakI9iwSxfsQ4fOdFWLpGDYsEwT7FWnGgR15JzUSxY1qlYrxaHnXBLKepw/eZrQIo312mu50666CTFlygWjMst1uXJiBPvSQqKhdDkFuuJU+AsRTuKBftyinXmNBh7keI+ioUQ/KpYL545DaKFFPdQLIThy2ItOB0Gd1P8gmIhEO3FWnzslJhO8RnFQjDaijXttIi2U9yhWAjHvWJtR06N0STFRxQLIflcrGTZKTKX4hbFQljuirXlNJldTXGDYiEwt8W6XJ11qqyl+BnFQnBuizXudBngacMtioXg/FysXcF3kfMNpbhBsRCcN9cTTp39FDcoFkLz5o9On0eHKW5QLATmVOjUs1e0k+IWxUJQPvzZaTTM04ZPKBZCsiF26tlvPsVHFAsB+bvTaWQ9xUcUC8E4UHAXOd9kik8oFkLxe6fWcYpPKBbCoPFJw50ZnjZ8RrEQgk3hU89+KynuUCwE4C9Os8eLKe5QLJi3p+Yucr7nKT6jWLDur043hqDvo1iw7UDRXWSGoLujWDDtK6ceQ9D3USwY9genH0PQbSgWzNrUMfXcBUPQbSgWjPr2T84ChqDbUSzYtDfoTGAIuh3Fgkl/c0YwBN2OYsGgl+qfNDAE3QHFgjkXqqae/bZStKFYsEbnXWSGoIuhWDDl+40xZ8h4inYUC6ZovYucb+B3KdpRLBhypG7q2W8ixRcoFuxQfBeZIeiCKBaM+FbzXWSGoIuiWLBB5dRzFwxB/xrFggXf676LzBB0YRQLBmidemYIWiiKhQr9oP0uMkPQxVEsaKd36pkhaKkoFqph8UkDQ9A+FAuqWbiLnG+Ga8l5KBYU0z317HeeIgfFgl7nzi6GoPNRLGilfeqZIWi5KBb6y8DUM0PQglEs9JOJqWeGoAWjWOgjG1PPDEELRrHAk4ZyQ9AJGnT94wXQJzamnv0WEuSjWFDGxtSz3+BugnwUC6pYmXr2G0rQAcWCJmamnv22E3RAsaDHSxeG0cMEHVAsaHE66gKxlaATigUlLE09+z1dTdAJxYIKG7MuGOMJOqJY0MDW1LPfwHqCjigWxHtvberZbyJBZxQL4pm9i5xvP0FnFAvC2Zt69nvE0wYfigXRTg3fRc63k8CDYkEyi1PPfsOLCTwoFuTaG3bBWUrgQ7EglfG7yPlGThL4UCwIZXXq2e9JAi+KBZnM30XOd5bAi2JBIvt3kfM941pyFxQL8mzOuED9JoEfxYI4lqeeuZasAsVCYbannv2mE3RBsSBIOHeRc0VcS+6KYkGSl8annv1G4wRdUCzI8c2yC9pcgm4oFqQ4DfVJw51ZriV3R7EgxOaYC9xagq4oFgQIZOrZb4CnDQVQLEhwFMTUM0PQWlAsdBb4kwauJZdCsdCsAO8i55viWnIRFAsNO51yYAi6KIqFBgU19ew3zNOGQigWmrTx1OHWfIIiKBaaEtjUs98IQ9DFUCw05YeDoKae/SYTFEKx0Ijwpp79jhMUQrHQiFOeNNw3w7XkgigWmrAZ3NSz30qCYigW6hbk1LPfY4agi6JYqFegU88MQatCsfCLEKee/SKGoAujWKjXQdB3kRmC1oFi4Ua4U88MQetCsXBxEfDUs98YTxuKo1iozeYzhxwLCQqjWKgFd5EZglaEYiHkqWeGoLWhWMHjLjJD0IpQrMCFPfXMELQ6FCtooU89cy1ZHYoVsK+5i8wQtDYUK1wbwU89MwStD8UKFk8aGIJWiGIF6oi7yF1MJCiFYqEi3EUuYj+GQNcfvkFwuIvc3aPDGKVQLFSDqecidmKUQ7FQCe4iFxuCjlEOxUIFmHouZj5GSRQL/cfUc9Eh6BglUSz02cXBiEMhkzFkolgB4UlDYccxZKJYofjAXeQyQ9AxZKJYgWDquYToPIZQFCsMPGkoNwQdQyiKFQLuIpfzPIZUFCsATD2XE53EkIpimcfUc1nLMcSiWNYx9VzaWQyxKJZtPGkob4ynDYJRLMuYeu7FQgy5KJZh3EXubQg6hlwUy6y9QYceDMUQjGJZxdRzj7ZjCEaxbGLquVejWQzBKJZFr5l67tlWDMkolkFMPfdulmvJslEsc5h6fojxGKJRLGMuuIv8EANcSxaOYtnC1PPDTMSQjWKZwl1khqCNo1iGMPXMELR5FMsMpp4Zgg4AxbKCu8gPN8y1ZPEolg1MPffDUgzpKJYJ3EVmCDoQFEs/pp4Zgg4HxdKPJw0MQYeDYin3nrvIDEGHhGLpxtRz/zAErQHF0uz1uQND0EGhWIox9cwQdHAoll48aWAIOjwUSyvuIjMEHSKKpRR3kftsLoYGFEslnjQwBB0oiqXQJneRGYIOFcXSh6lnhqDDRbG0OWLqmSHogFEsZZh6Zgg6aBRLkwvuIldjiiFoLSiWIqejDgxBh41i6cHUc1WeMgStBsXSgrvIDEGDYqnB1DND0KBYWjD1zBA0KJYa3EVmCBoUSwueNHAtGRRLC+4iO8cQNCiWEkw93+JaMiiWAnvDDhVbakGR/79/DbG4i1y96KQFRSiWXEw91+FJC5pQLLG+cqjBWQuaUCyhuItcj7EXLWhCsUTanHGoxXkLqlAsgbiLXJvB3RZUoVjyMPVcm2i6BV0oljTcRa5RtN2CLhRLGKae6zR61YIuFEsWpp5rNdeCMhRLEu4i12t2tQVlKJYcG0w912ytBW0olhg8aajbwHoL2lAsIZh6rt9QC+pQLBm4i9yA/RbUoVgCcBe5EVM8bVCIYjXvdMqhATst6EOxmvYdTxqaMbzYgj4Uq2FMPTckms+g0L/ef4cGMfXclJH1DApRrCYdMPXcmMkMGlGsBvGkoUHHGTSiWI3hSUOTZl5k0IhiNYSp52atZFCJYjWDqedmPV7MoBLFagJTz01byqATxWoAU89Ni04y6ESx6vbugLvIjXuSQSmKVbN/M/UswFkGpShWvZh6lmCMpw1qUaw6bT5zEGAhg1YUqz5vuYssw+BuBq0oVm2YepZiOoNaFKsuTD1LEW1nUIti1YOpZzlGrzKoRbHqcMrUsyBbGfSiWNXjLrIos6sZ9KJYlWPqWZbxDIpRrEpxF1maaIBryapRrGodcRdZmIkMmlGs6nAXWaL9DJpRrOq85S6yPI/4UqgbxaoMU88CRTsZVKNYFXnLXWSJhrmWrBzFqgZTzzIxBK0dxarCO540yMQQtHoUqwIHIw49YQgaFKtePGmQjCFo9ShWX3EXWTSGoPWjWH3E1LNw5xm0o1j9w9SzbBFD0AZQrH7hLrJ4zzOoR7H6hKln8RiCtoBi9QNTzxosZ9CPYvUBU88qMARtAcXqh3c8aZBvbPUK+v3v7X/xUEw9a7BwBQMo1sMx9azB4O4VDKBYD3U06CBfNHQFCyjWAzH1rMT2FSygWA/C1LMWU/+4ggUU6wH+w9SzGltXMIFi9Y6pZz2erv4TP7V3Pz1RpVkAhy9wgRQNogZnYScY2oXJaKo2RqloQohYpCNRIuEr3MXdVqbDEpZ+gOnPO92JZpzxDxQUVfc953m+Askv1Funzgnh07//xbU49VySOy0xKNY12YtcksWnLTEo1rU49VyWzZYgFOs67EUuzKuWIBRrck49l2bhWUsQijUpp57L87IlCsWakL3I5Vl91BKFYk3EqecC1TstYSjWJOxFLlHvXUsYinV1Tj0XqX7TEodiXZW9yKU6aYlDsa7IXuRC1VtGGyJRrCsZPKgo1GlLIIp1FacVpVoy2hCKYl3qzKnnkt1viUSxLmUvcsl6L1oiUaxL2ItctsctoSjWz9mLXLiHLaEo1k+cGWko3YZtycEo1g/YixzCdkssivVDTj2Xb3m3JRbF+gGnniNYaQlGsb7DSEMURhvCUaxv2IscxkLTEoxi/R97kQN53hKNYn3DqecoVo02xKNYX7MXORSHoANSrK849RxKzyHogBTrK3/uOfUcyN2WeBTrC6eeozlsiUexvjgz0hDLA9uSI1KszwYLFaE4BB2SYv3FqeeAbEuOSbH+NlytCMYh6JgUy6nnkGqHoGNSLKeeQ/qlJSTFcuo5JIegg8peLHuRQ6o3jDYElbtYTj1H5RB0VKmLZS9yVLYlh5W3WE49B+YQdFh5i2Uvcly1bclhZS2WU8+RrdmWHFbOYp059RxZbVtyXBmL9Ye9yLH9w7bkuBIWy6nn6P7ZEla+YhlpiG7RtuTAshVrZC9yeA5BR5arWH/Yi5zAq4a4Pv15loe9yBksjBviSlQsp55zeNkQWJ5i2Yucw/qjhsCSFOvcqecsfm2ILEmxnHrOove0IbIUxXLqOY+7DaFlKJaRhkQOG0ILX6wLe5EzefCsIbToxXLqOZX6tCG22MU6N9KQy5LRhuhCF8up52Tq3xqCi1wsp56zqd81BBe3WHv2IqfzuCG6sMVy6jmhk4boghbLSENGG08aogtZrMFWRULbDeFFLJa9yDkt7zaEF65YF6PlipTuN8QXrlhOPaf1oiG+YMVy6jmvNduSM4hVLKeeE3vekECkYjn1nNm60YYU4hTLqefU6jsNGUQp1oW9yLkt2pacQ5BiOfWcXL3ZkEKMYtmLnJ5D0ElEKJZTzyzYlpxE+cU6d+oZh6DTKL5Y9iJTVau2JWdRdrGcesYh6FzKLpa9yPytNtqQRsnF2utV8Jc3DVkUXCx7kfnsYUMWpRbrwo8I+WLdu3sehRZr6MUdVwozKrNYXtz5r9q8eyIlFuvA2j7MuydVXrEGCxU4oZNUccVyKIf/VdvvnklZxTo/NoKFu6qZFVWsvsupfGOlIZGSiuWwFy5SZFdOsYyM8j1LflOYSiHFOh8tVfAd9zxjpVJGsfq29vF99abDqqkUUSxr3DGNRSnFMoHFT5w0ZNL1Yp3vV/Bjy+8aMul4sY6XK/iJjd2GTDpdrJHD9Fzigd1YuXS4WEM/eeYyteGGZDpbrP5aBZd6rFi5dLRYA0vcuYr6ruVYuXSyWAMDWFzRimLlMlGx9Iqu2VSsXLpWrHO9YhJvnozJ5NPFeZf0vV8xkbVHYzLpVLGGvh9kQgu7YzLpULFG5q+YVL31dEwmnSnWnvl2rmHpZEwmHSnWvoV9XEvvzphMOlGsIydTua4VXxamMv9i9R2c4AbWPL2nMu9ijexD5kZWPWSlMt9i7a9WcDP3fSzMZI7F6r+v4Ma2XozJY27FOjZ9xVQsno7JY07FeturYDrW/JOVyDyKtfe4gqmpd7xk5THzYvX9e8WUbTwck8WMi3WwVcG0vTaTlcYsizWy+opbsbhj50wWMyvW8O1iBbdj6Y6nrCRmU6z+kV86c5vWXz4bk8EMijU4Wq/gdq1v+2CYwm0Xa3hk7xWzsLRjt18Gt1qs0cflCmajt2KSNIHbK9bxB1uvmKmFU58Mw7udYg2PLJFh9np3TzzABzf9Yg0OPphjYE7Wdw41K7TpFmtw8N73gszV8uZznw0Dm16xhvsfDF3RAb1ftl8ZKI1qKsXqH7x94/fNdEdv7dcT/2mFdNNiDfc/rokVHbS6dv/00E+ko7l2sfrHv398bTqUblu/t/nb9svDF093Hz3xJB/BBMUa9IejveP939++f33P+zrFqKvPllZJY+nrv35tNhQAAAAAAAAAAAAAAAAAAAAAAAAAAAAAAAAAAAAAAAAAAAAAAAAAAAAAAAAAAAAAAAAAAAAAAAAAAAAAAAAAAAAAAAAAAAAAAAAAAACS+A9rdpCEjgf+iQAAAABJRU5ErkJggg==;rounded=1;" parent="WIyWlLk6GJQsqaUBKTNV-1" vertex="1">
          <mxGeometry x="582.34" y="275" width="60" height="60" as="geometry" />
        </mxCell>
        <mxCell id="gBozAsolUpihr9TJqK_L-108" value="&lt;font style=&quot;font-size: 13px;&quot;&gt;&lt;b&gt;google could storage&lt;/b&gt;&lt;/font&gt;" style="rounded=1;whiteSpace=wrap;html=1;strokeColor=none;" parent="WIyWlLk6GJQsqaUBKTNV-1" vertex="1">
          <mxGeometry x="547.34" y="339" width="120" height="30" as="geometry" />
        </mxCell>
        <mxCell id="gBozAsolUpihr9TJqK_L-109" value="" style="edgeStyle=segmentEdgeStyle;endArrow=classic;html=1;curved=0;rounded=1;endSize=8;startSize=8;flowAnimation=1;strokeWidth=2;strokeColor=#CC0066;" parent="WIyWlLk6GJQsqaUBKTNV-1" edge="1">
          <mxGeometry width="50" height="50" relative="1" as="geometry">
            <mxPoint x="612" y="369" as="sourcePoint" />
            <mxPoint x="472" y="471" as="targetPoint" />
            <Array as="points">
              <mxPoint x="612" y="471" />
              <mxPoint x="472" y="471" />
            </Array>
          </mxGeometry>
        </mxCell>
        <mxCell id="gBozAsolUpihr9TJqK_L-112" value="" style="shape=image;html=1;verticalAlign=top;verticalLabelPosition=bottom;labelBackgroundColor=#ffffff;imageAspect=0;aspect=fixed;image=https://cdn4.iconfinder.com/data/icons/file-extension-names-vol-8/512/2-128.png;rounded=1;" parent="WIyWlLk6GJQsqaUBKTNV-1" vertex="1">
          <mxGeometry x="191.56" y="473" width="50" height="50" as="geometry" />
        </mxCell>
        <mxCell id="gBozAsolUpihr9TJqK_L-138" value="" style="edgeStyle=orthogonalEdgeStyle;rounded=0;orthogonalLoop=1;jettySize=auto;html=1;flowAnimation=1;strokeColor=#00994D;strokeWidth=2;" parent="WIyWlLk6GJQsqaUBKTNV-1" edge="1">
          <mxGeometry relative="1" as="geometry">
            <mxPoint x="214.6470588235295" y="553" as="sourcePoint" />
            <mxPoint x="214.52941176470586" y="634.9999999999998" as="targetPoint" />
          </mxGeometry>
        </mxCell>
        <mxCell id="gBozAsolUpihr9TJqK_L-113" value="&lt;font style=&quot;font-size: 13px;&quot;&gt;&lt;b&gt;archieve.zip&lt;/b&gt;&lt;/font&gt;" style="rounded=1;whiteSpace=wrap;html=1;strokeColor=none;" parent="WIyWlLk6GJQsqaUBKTNV-1" vertex="1">
          <mxGeometry x="156.56" y="523" width="120" height="30" as="geometry" />
        </mxCell>
        <mxCell id="gBozAsolUpihr9TJqK_L-114" value="&lt;b&gt;data_ingestion_artifact&lt;/b&gt;" style="whiteSpace=wrap;html=1;fillColor=#FFFF99;strokeColor=#d6b656;rounded=1;" parent="WIyWlLk6GJQsqaUBKTNV-1" vertex="1">
          <mxGeometry x="350.06" y="660" width="139.94" height="40" as="geometry" />
        </mxCell>
        <mxCell id="gBozAsolUpihr9TJqK_L-118" value="&lt;font style=&quot;font-size: 13px;&quot;&gt;&lt;b&gt;zip_data_file_path&lt;/b&gt;&lt;/font&gt;" style="rounded=1;whiteSpace=wrap;html=1;strokeColor=none;" parent="WIyWlLk6GJQsqaUBKTNV-1" vertex="1">
          <mxGeometry x="157.81" y="635" width="117.5" height="30" as="geometry" />
        </mxCell>
        <mxCell id="gBozAsolUpihr9TJqK_L-119" value="" style="shape=stencil(lVnbUhsxDP2avGpsy5blZ9r+BzNAyZQCA/T299U29RLLuwd4SzY6a1s+ko6UA188314+Xh9SeH55evh2/et49XJ74E+HlI73t9dPxxf7dODPB764eXi6/vr08OP+6vT98XKxXD59f/i5vOH3CReJywJK4c/pQaAQ/j34cjK/O96fmWfK0Zu3ffNKJTvzWPfNY6DqX58ysGeq1dkL2H0UKmmwjxQE2CvV4uz/v2DT3pZ3503dX9v2iZI6+6bAPpPIYJ+Jwf7N/2F8f6EGris1qqN9JQb+50TMg32D7GGjjzj7huztvsb3G0PQAViJwwhIFBnw2fibPUBRAMS+gRWQ+5rbgImj0S4BkCgXEreChRFgRbafHaD1qN4GNEojwHiN4rIYjce4MeIl4NaSqY2BbExScOgyMZUtlMEZSiMdL87I2EAsSPSxaWyMgNxiweYAFSY7EQqjl7hRBl6S1r2+hjPD/FWj91IWGHDVyDzedFYKICPVTDpmvBJIEUAojxFnZFFwD1V7QK6A3Pm7CVALUbclIQXxoExpBAguC2obcAB7BTi0ik8CUnvl2ga0zpw1sUZIjRYnQIalpKVeCVaAkICYboXCeA/maEErCPEY0+boAgKoWXJ31UGgW2NYxceKqBQBmWwJx++mMEYNIMEDUDZuU4zakwISk73PpY3FD2gF2/G0Aipy5pMSPaCiLVV/1QZA6but1DnzUgYhZ4A8JqaGa9YCcCvYmshLMrm1wJAzQHNbsqKE6FopFw9gdA86sdUqCr7pMm3pDXrH6AEZ07uI91IEqW8JoAnQPhij0kvxbhpwN2fJEh/CdQFLTGE38Vh4lyco92kXI2cARQGhlEY3nflhj01Oxb26eg8Q1QNgiRAvLJviNDB1P7amoov4MGCSTFb4EroI9mlgKa0IYGXTrZAg+2wDdTzDUuZAkGr1PVatMFlq8bmvcm+L9vQJj4cWxYLGeg6nTwRKptr6+1ZA6rV4T5SlMahNLke0gvhOzgR5BOSray5dAbXruj3p6uhtOhGRr06SyZRoQR1B6/r/TOuiKmcizwn8RU2DM0iZBL4VLZA1THc6eltHgCYOS1fjBD6md9G+gbVJ0b7mNqB4L3HBAJ76JoZKtMydWeh03OtfXc9h3SXqX5cOeQygVKgggPieIzEpAmTfc6QES3tOEyDAdG+9pJsVxQr1ul2TjGyNpQftNoCpumlLxuOf2H9eAQwvbhkPuRUiCRp4yQQIcEt2TU47KBznpOjJWvvIaW8i6Nqs0uvL3sQxeXvUn5gDZdx/hjp6npjmvuD7BrIZlqpp3Jv7IGh7N36YnHunsmPu0ylMLMFX8jXmdsydnGco/0Mv8q/miAhhmlfBSjCJ5gTT+mQe4Vx42kzsZ3/fUQPUXJMjA8yd0zUFyMiJBKG3w++jGJbhb5rbh9e/Rm6Od3enf1bOf/d/pdij098w/Pkv);lineShape=1;strokeColor=#FF8000;strokeWidth=2;rounded=1;" parent="WIyWlLk6GJQsqaUBKTNV-1" vertex="1">
          <mxGeometry x="280" y="650" width="70.06" height="15.95" as="geometry" />
        </mxCell>
        <mxCell id="gBozAsolUpihr9TJqK_L-122" value="&lt;font style=&quot;font-size: 13px;&quot;&gt;&lt;b&gt;csv_data_file_path&lt;/b&gt;&lt;/font&gt;" style="rounded=1;whiteSpace=wrap;html=1;strokeColor=none;" parent="WIyWlLk6GJQsqaUBKTNV-1" vertex="1">
          <mxGeometry x="158" y="693" width="120" height="30" as="geometry" />
        </mxCell>
        <mxCell id="gBozAsolUpihr9TJqK_L-123" value="" style="shape=stencil(rVnbThtBDP2avFpzvzxT+h9IhBKVEgT09vc902iW2Ls5UaW+hcWeHd+Oj727ePP2ePey3wX39v56/Lr/ebh/f9zFT7sQDs+P+9fDO37t4u0u3jwcX/dfXo/fn+9Pf7/cDcnx69vxxzjh10nPSUtDKbjfpwe9SvF/n3w+yT8dns/ko9So5Yt0Il8kJivv0mX5LtFp+Sw+XJb3XmrWCkl8JApx2rcoRPHEAp8lda0QxBWiUCUWreDFsTd0SdqG1qWTN4SV0a1JbUQhSjcKVTJxa8hSdBxankdsK1SpRiFJYG/o0nQmtSCR2BDDyktOEol0zBJ14GqbR2wrNAn6DbVIqpcVkrNurUkaMTpFiUErLE+2FbLNpeqldaJQZ24uCk6yIwpNmg5cWZ5sKmQ3w7QoFK6AwOmKK0kyCVzOs4IXBU/dmhE4bTSeVBJpnFe1DXgn81IBCOjAwSrHFJpkfSU4mgEr4pr1GxB7VkBItaDdmgKFViSzwfrYJZBcqgDjqhWKZFKizUvRFRcBPMRLbfn3ooCGRJBvoJA2GsBTSKSBc0UbHdK0alsBYKxTA2jLIg1w9/oNaACF2ID2kTVqeFyJ1AM6mtNxQNdjLQs90+lcaly+iNc3yvxCzXZpjjGQNy3UTaS9JG9YhhNH8q53a6/jIUNieytPSg3yuRl5z+7fLaa6CeOX5Hsy8oVUsneLfR8KrDv3hU8sGTQR86IB0chnfn6x8pUU2QiAvQ9jkSPA1cqz+zeL757iEOTz6v6MpbZZH2f+YfdvFqs9xXbIe1swV+5vGiAKkiD7KEhbMIyGQL7YBGUkG/J9VZA8vmFVkLyAV4DiufwKUAIHlL4COJYPkLf3aVfkbX76K/Vo5dP/lEfH0vWFKY3lT7Fkpc0DLjWkZOrdzxtuK4AYmIJHT2MZF+yNfOMmOwtx8BGlHt1ibuAEDdTDJPXwEmND2TKJyGERE1PTfRszj2Pkxtm6iZVy91rthIOZh3H3ikhrL2HmCYz3Bjs4pkLHurKq5YRsJ0ZjPDF8K0fajkuw6JX5kiOvOGMBHpH0xnkGf0uclGpbIU4Tz4YuRlmyt4ErjbZ8jHV+NTjS4Rfn6TgglIEpFIlmWo6TNmwrrCYcZBdrIwkVbBQKBYExABkbGmWaGIBMeqOkPEH6uFo3oWg98RJK3utcaon2hgBcMnuRQpshJiarUPn2KFvkAxYyfhpQ0zq9gbZ0oeXsqgZ4HogNAHeTS2OLR2zwCJxZRHK3Yiaza7/MF4vB1vQYqxipsiWNLsxeUCyHHyyRWJDsNgusgK5S7V6n8y2kn6ctHddx1uZstxovIKXg7A5y0BpyIWfXFYP20fsYkt0XHL8g71bnMwKwGtIGLSZlsyXPdhvOrvrGWEL9Y+1tFCjW/qyUtC0zx5l8pf75t28P1+Xx4+NDx8Ph6en0neT8//bDCB6dPqrE2z8=);lineShape=1;strokeColor=#FF00FF;strokeWidth=2;rounded=1;" parent="WIyWlLk6GJQsqaUBKTNV-1" vertex="1">
          <mxGeometry x="280" y="690" width="70.06" height="20" as="geometry" />
        </mxCell>
        <mxCell id="gBozAsolUpihr9TJqK_L-124" value="" style="shape=image;html=1;verticalAlign=top;verticalLabelPosition=bottom;labelBackgroundColor=#ffffff;imageAspect=0;aspect=fixed;image=https://cdn3.iconfinder.com/data/icons/document-icons-2/30/647702-excel-128.png;rounded=1;" parent="WIyWlLk6GJQsqaUBKTNV-1" vertex="1">
          <mxGeometry x="489.99999999999994" y="591" width="40" height="40" as="geometry" />
        </mxCell>
        <mxCell id="gBozAsolUpihr9TJqK_L-125" value="&lt;font style=&quot;font-size: 13px;&quot;&gt;&lt;b&gt;ner.csv&lt;/b&gt;&lt;/font&gt;" style="rounded=1;whiteSpace=wrap;html=1;strokeColor=none;" parent="WIyWlLk6GJQsqaUBKTNV-1" vertex="1">
          <mxGeometry x="500" y="635" width="30" height="15" as="geometry" />
        </mxCell>
        <mxCell id="gBozAsolUpihr9TJqK_L-131" value="" style="edgeStyle=elbowEdgeStyle;elbow=vertical;endArrow=classic;html=1;curved=0;rounded=1;endSize=8;startSize=8;flowAnimation=1;strokeColor=#00994D;strokeWidth=2;" parent="WIyWlLk6GJQsqaUBKTNV-1" edge="1">
          <mxGeometry width="50" height="50" relative="1" as="geometry">
            <mxPoint x="519" y="660" as="sourcePoint" />
            <mxPoint x="210" y="720" as="targetPoint" />
            <Array as="points">
              <mxPoint x="359" y="750" />
            </Array>
          </mxGeometry>
        </mxCell>
        <mxCell id="gBozAsolUpihr9TJqK_L-132" value="&lt;font size=&quot;1&quot; color=&quot;#ff0000&quot; style=&quot;&quot;&gt;&lt;b style=&quot;font-size: 18px;&quot;&gt;NER_Data_Ingestion_Workflow&lt;/b&gt;&lt;/font&gt;" style="rounded=1;whiteSpace=wrap;html=1;strokeColor=none;" parent="WIyWlLk6GJQsqaUBKTNV-1" vertex="1">
          <mxGeometry x="290" y="170" width="290" height="30" as="geometry" />
        </mxCell>
        <mxCell id="gBozAsolUpihr9TJqK_L-59" value="&lt;b&gt;data_ingestion_config&lt;/b&gt;" style="rounded=1;whiteSpace=wrap;html=1;strokeWidth=1;fillColor=#FFFF99;strokeColor=#d6b656;shadow=0;glass=0;flipV=1;" parent="WIyWlLk6GJQsqaUBKTNV-1" vertex="1">
          <mxGeometry x="347.56" y="275.9" width="132.44" height="34.1" as="geometry" />
        </mxCell>
        <mxCell id="gBozAsolUpihr9TJqK_L-137" value="" style="endArrow=classic;html=1;rounded=0;flowAnimation=1;strokeColor=#006600;strokeWidth=2;" parent="WIyWlLk6GJQsqaUBKTNV-1" edge="1">
          <mxGeometry width="50" height="50" relative="1" as="geometry">
            <mxPoint x="400" y="500" as="sourcePoint" />
            <mxPoint x="250" y="500" as="targetPoint" />
          </mxGeometry>
        </mxCell>
        <mxCell id="gBozAsolUpihr9TJqK_L-139" value="" style="endArrow=classic;html=1;rounded=0;entryX=0;entryY=0.5;entryDx=0;entryDy=0;flowAnimation=1;strokeColor=#00994D;strokeWidth=2;" parent="WIyWlLk6GJQsqaUBKTNV-1" edge="1">
          <mxGeometry width="50" height="50" relative="1" as="geometry">
            <mxPoint x="416" y="610" as="sourcePoint" />
            <mxPoint x="486" y="611" as="targetPoint" />
          </mxGeometry>
        </mxCell>
        <mxCell id="gBozAsolUpihr9TJqK_L-140" value="" style="edgeStyle=orthogonalEdgeStyle;rounded=1;orthogonalLoop=1;jettySize=auto;html=1;flowAnimation=1;strokeColor=#FF3333;strokeWidth=2;" parent="WIyWlLk6GJQsqaUBKTNV-1" target="gBozAsolUpihr9TJqK_L-141" edge="1">
          <mxGeometry relative="1" as="geometry">
            <mxPoint x="411" y="700" as="sourcePoint" />
            <Array as="points">
              <mxPoint x="411" y="770" />
              <mxPoint x="411" y="770" />
            </Array>
          </mxGeometry>
        </mxCell>
        <mxCell id="gBozAsolUpihr9TJqK_L-141" value="&lt;b&gt;To be continue to data_transformation component&lt;/b&gt;" style="whiteSpace=wrap;html=1;fillColor=#f8cecc;strokeColor=#b85450;rounded=1;" parent="WIyWlLk6GJQsqaUBKTNV-1" vertex="1">
          <mxGeometry x="351.06" y="790" width="139.94" height="60" as="geometry" />
        </mxCell>
        <mxCell id="gBozAsolUpihr9TJqK_L-143" value="" style="edgeStyle=elbowEdgeStyle;elbow=vertical;sourcePerimeterSpacing=0;targetPerimeterSpacing=0;startArrow=none;endArrow=none;rounded=0;curved=0;" parent="WIyWlLk6GJQsqaUBKTNV-1" edge="1">
          <mxGeometry relative="1" as="geometry">
            <mxPoint x="330" y="340" as="sourcePoint" />
            <mxPoint x="400" y="380" as="targetPoint" />
          </mxGeometry>
        </mxCell>
        <mxCell id="gBozAsolUpihr9TJqK_L-144" value="" style="edgeStyle=elbowEdgeStyle;elbow=vertical;endArrow=classic;html=1;curved=0;rounded=0;endSize=8;startSize=8;" parent="WIyWlLk6GJQsqaUBKTNV-1" edge="1">
          <mxGeometry width="50" height="50" relative="1" as="geometry">
            <mxPoint x="370" y="280" as="sourcePoint" />
            <mxPoint x="420" y="230" as="targetPoint" />
          </mxGeometry>
        </mxCell>
        <mxCell id="gBozAsolUpihr9TJqK_L-145" value="" style="edgeStyle=elbowEdgeStyle;elbow=vertical;endArrow=classic;html=1;curved=0;rounded=0;endSize=8;startSize=8;" parent="WIyWlLk6GJQsqaUBKTNV-1" edge="1">
          <mxGeometry width="50" height="50" relative="1" as="geometry">
            <mxPoint x="370" y="280" as="sourcePoint" />
            <mxPoint x="420" y="230" as="targetPoint" />
          </mxGeometry>
        </mxCell>
        <mxCell id="gBozAsolUpihr9TJqK_L-146" value="" style="edgeStyle=elbowEdgeStyle;elbow=vertical;endArrow=classic;html=1;curved=0;rounded=0;endSize=8;startSize=8;" parent="WIyWlLk6GJQsqaUBKTNV-1" edge="1">
          <mxGeometry width="50" height="50" relative="1" as="geometry">
            <mxPoint x="370" y="280" as="sourcePoint" />
            <mxPoint x="420" y="230" as="targetPoint" />
          </mxGeometry>
        </mxCell>
      </root>
    </mxGraphModel>
  </diagram>
</mxfile>
